<svg xmlns="http://www.w3.org/2000/svg" width="1680" height="860" viewBox="0 0 1680 860" font-family="Manrope, system-ui, sans-serif">
<defs></defs>
<rect x="0" y="0" width="1680" height="860" fill="#ffffff"></rect>
<text x="52" y="66" font-family="Manrope" font-size="12" font-weight="700" letter-spacing="1.6" fill="#94a3b8">INFOGRÁFICO METODOLÓGICO · COMPARATIVO</text><text x="52" y="104" font-family="Manrope" font-size="30" font-weight="800" letter-spacing="-0.3" fill="#0f172a">Assistente de Pneumologia com RAG — as três configurações comparadas</text><text x="52" y="134" font-family="Manrope" font-size="14.5" fill="#64748b">As três diferem apenas na <tspan font-weight="700" fill="#334155">seleção dos trechos</tspan> que chegam ao mesmo modelo de linguagem local.</text><rect x="52" y="168" width="1576" height="150" rx="20" fill="#f8fafc" stroke="#e2e8f0" stroke-width="1"></rect><circle cx="96" cy="216" r="22" fill="#64748b"></circle><text x="96" y="223" text-anchor="middle" font-family="Manrope" font-size="20" font-weight="800" fill="#ffffff">1</text><text x="74" y="260" font-family="Manrope" font-size="16.5" font-weight="800" fill="#64748b">Baseline</text><rect x="246" y="191" width="176" height="108" rx="16" fill="#ffffff" stroke="#cbd5e1" stroke-width="1.5"></rect><rect x="260" y="207" width="40" height="40" rx="11" fill="#f1f5f9"></rect><svg x="268" y="215" width="24" height="24" viewBox="0 0 24 24" fill="none" stroke="#64748b" stroke-width="1.7" stroke-linecap="round" stroke-linejoin="round"><path d="M4 4h16v11H9l-4 3.5V15H4z"></path><path d="M12 7v5M9.5 9.5h5"></path></svg><text x="260" y="265" font-family="Manrope" font-size="14.5" font-weight="700" fill="#0f172a">Pergunta clínica</text><text x="260" y="281" font-family="Manrope" font-size="11" fill="#475569">entrada do usuário</text><path d="M430 227H488" stroke="#64748b" stroke-width="2" stroke-linecap="round" stroke-dasharray="4 5"></path><path d="M482 221l7 6-7 6" fill="none" stroke="#64748b" stroke-width="2" stroke-linecap="round" stroke-linejoin="round"></path><text x="462" y="213" text-anchor="middle" font-family="Manrope" font-size="9.5" font-weight="700" fill="#64748b">sem recuperação</text><rect x="502" y="191" width="176" height="108" rx="16" fill="#ffffff" stroke="#d9ccfb" stroke-width="1.5"></rect><rect x="516" y="207" width="40" height="40" rx="11" fill="#f5f2ff"></rect><svg x="524" y="215" width="24" height="24" viewBox="0 0 24 24" fill="none" stroke="#7c3aed" stroke-width="1.7" stroke-linecap="round" stroke-linejoin="round"><rect x="6" y="6" width="12" height="12" rx="2.5"></rect><rect x="10" y="10" width="4" height="4" rx="1"></rect><path d="M9 3v3M15 3v3M9 18v3M15 18v3M3 9h3M3 15h3M18 9h3M18 15h3"></path></svg><text x="516" y="265" font-family="Manrope" font-size="14.5" font-weight="700" fill="#0f172a">LLM</text><text x="516" y="281" font-family="&#39;JetBrains Mono&#39;,monospace" font-size="10.5" font-weight="500" fill="#7c3aed">Qwen2.5-3B</text><path d="M686 227H718" stroke="#64748b" stroke-width="2" stroke-linecap="round"></path><path d="M712 221l7 6-7 6" fill="none" stroke="#64748b" stroke-width="2" stroke-linecap="round" stroke-linejoin="round"></path><rect x="732" y="191" width="176" height="108" rx="16" fill="#ffffff" stroke="#a9e9bf" stroke-width="1.5"></rect><rect x="746" y="207" width="40" height="40" rx="11" fill="#effdf4"></rect><svg x="754" y="215" width="24" height="24" viewBox="0 0 24 24" fill="none" stroke="#16a34a" stroke-width="1.7" stroke-linecap="round" stroke-linejoin="round"><rect x="5" y="3" width="14" height="18" rx="2.5"></rect><path d="M9 9h6M9 13h6M9 17h4"></path></svg><text x="746" y="265" font-family="Manrope" font-size="14.5" font-weight="700" fill="#0f172a">Resposta</text><text x="746" y="281" font-family="Manrope" font-size="11" fill="#475569">sem citação de fonte</text><rect x="1396" y="185" width="210" height="116" rx="14" fill="#ffffff" stroke="#64748b" stroke-width="1.7" stroke-dasharray="5 5"></rect><text x="1412" y="207" font-family="Manrope" font-size="9.5" font-weight="800" fill="#64748b" letter-spacing="1.2">IDEIA</text><text x="1412" y="227" font-family="Manrope" font-size="12" fill="#475569">Responde só com o conhecimento</text><text x="1412" y="244" font-family="Manrope" font-size="12" fill="#475569">paramétrico do modelo. Rápido,</text><text x="1412" y="261" font-family="Manrope" font-size="12" fill="#475569">mas pode errar em detalhes e</text><text x="1412" y="278" font-family="Manrope" font-size="12" fill="#475569">não cita fonte.</text><rect x="52" y="334" width="1576" height="150" rx="20" fill="#f6f9ff" stroke="#dbe6ff" stroke-width="1"></rect><circle cx="96" cy="382" r="22" fill="#2563eb"></circle><text x="96" y="389" text-anchor="middle" font-family="Manrope" font-size="20" font-weight="800" fill="#ffffff">2</text><text x="74" y="426" font-family="Manrope" font-size="16.5" font-weight="800" fill="#2563eb">RAG convencional</text><rect x="246" y="357" width="176" height="108" rx="16" fill="#ffffff" stroke="#cbd5e1" stroke-width="1.5"></rect><rect x="260" y="373" width="40" height="40" rx="11" fill="#f1f5f9"></rect><svg x="268" y="381" width="24" height="24" viewBox="0 0 24 24" fill="none" stroke="#64748b" stroke-width="1.7" stroke-linecap="round" stroke-linejoin="round"><path d="M4 4h16v11H9l-4 3.5V15H4z"></path><path d="M12 7v5M9.5 9.5h5"></path></svg><text x="260" y="431" font-family="Manrope" font-size="14.5" font-weight="700" fill="#0f172a">Pergunta clínica</text><text x="260" y="447" font-family="Manrope" font-size="11" fill="#475569">entrada do usuário</text><path d="M430 393H462" stroke="#2563eb" stroke-width="2" stroke-linecap="round"></path><path d="M456 387l7 6-7 6" fill="none" stroke="#2563eb" stroke-width="2" stroke-linecap="round" stroke-linejoin="round"></path><rect x="476" y="357" width="176" height="124" rx="16" fill="#ffffff" stroke="#bfd3fe" stroke-width="1.5"></rect><rect x="490" y="373" width="40" height="40" rx="11" fill="#eef4ff"></rect><rect x="500" y="383" width="8" height="8" rx="2" fill="#2563eb"></rect><rect x="512" y="383" width="8" height="8" rx="2" fill="#60a5fa"></rect><rect x="500" y="395" width="8" height="8" rx="2" fill="#93c5fd"></rect><rect x="512" y="395" width="8" height="8" rx="2" fill="#3b82f6"></rect><text x="490" y="431" font-family="Manrope" font-size="14.5" font-weight="700" fill="#0f172a">Busca densa</text><text x="490" y="447" font-family="&#39;JetBrains Mono&#39;,monospace" font-size="10.5" font-weight="500" fill="#2563eb">e5 + FAISS (cosseno)</text><text x="490" y="463" font-family="Manrope" font-size="11" fill="#475569">top-5 mais próximos</text><path d="M660 393H692" stroke="#2563eb" stroke-width="2" stroke-linecap="round"></path><path d="M686 387l7 6-7 6" fill="none" stroke="#2563eb" stroke-width="2" stroke-linecap="round" stroke-linejoin="round"></path><rect x="706" y="357" width="176" height="108" rx="16" fill="#ffffff" stroke="#d9ccfb" stroke-width="1.5"></rect><rect x="720" y="373" width="40" height="40" rx="11" fill="#f5f2ff"></rect><svg x="728" y="381" width="24" height="24" viewBox="0 0 24 24" fill="none" stroke="#7c3aed" stroke-width="1.7" stroke-linecap="round" stroke-linejoin="round"><rect x="6" y="6" width="12" height="12" rx="2.5"></rect><rect x="10" y="10" width="4" height="4" rx="1"></rect><path d="M9 3v3M15 3v3M9 18v3M15 18v3M3 9h3M3 15h3M18 9h3M18 15h3"></path></svg><text x="720" y="431" font-family="Manrope" font-size="14.5" font-weight="700" fill="#0f172a">LLM</text><text x="720" y="447" font-family="&#39;JetBrains Mono&#39;,monospace" font-size="10.5" font-weight="500" fill="#7c3aed">Qwen2.5-3B</text><path d="M890 393H922" stroke="#2563eb" stroke-width="2" stroke-linecap="round"></path><path d="M916 387l7 6-7 6" fill="none" stroke="#2563eb" stroke-width="2" stroke-linecap="round" stroke-linejoin="round"></path><rect x="936" y="357" width="176" height="108" rx="16" fill="#ffffff" stroke="#a9e9bf" stroke-width="1.5"></rect><rect x="950" y="373" width="40" height="40" rx="11" fill="#effdf4"></rect><svg x="958" y="381" width="24" height="24" viewBox="0 0 24 24" fill="none" stroke="#16a34a" stroke-width="1.7" stroke-linecap="round" stroke-linejoin="round"><rect x="5" y="3" width="14" height="18" rx="2.5"></rect><path d="M9 9h6M9 13h6M9 17h4"></path></svg><text x="950" y="431" font-family="Manrope" font-size="14.5" font-weight="700" fill="#0f172a">Resposta</text><text x="950" y="447" font-family="&#39;JetBrains Mono&#39;,monospace" font-size="10.5" font-weight="500" fill="#16a34a">+ [Fonte N]</text><rect x="1396" y="351" width="210" height="116" rx="14" fill="#ffffff" stroke="#2563eb" stroke-width="1.7" stroke-dasharray="5 5"></rect><text x="1412" y="373" font-family="Manrope" font-size="9.5" font-weight="800" fill="#2563eb" letter-spacing="1.2">IDEIA</text><text x="1412" y="393" font-family="Manrope" font-size="12" fill="#475569">Recupera por significado os</text><text x="1412" y="410" font-family="Manrope" font-size="12" fill="#475569">trechos mais próximos e</text><text x="1412" y="427" font-family="Manrope" font-size="12" fill="#475569">responde com base neles,</text><text x="1412" y="444" font-family="Manrope" font-size="12" fill="#475569">citando a fonte.</text><rect x="52" y="500" width="1576" height="150" rx="20" fill="#f5fcf8" stroke="#cdeed9" stroke-width="1"></rect><circle cx="96" cy="548" r="22" fill="#16a34a"></circle><text x="96" y="555" text-anchor="middle" font-family="Manrope" font-size="20" font-weight="800" fill="#ffffff">3</text><text x="74" y="592" font-family="Manrope" font-size="16.5" font-weight="800" fill="#16a34a">Proposta</text><text x="74" y="610" font-family="Manrope" font-size="11" font-weight="600" fill="#94a3b8">+ reranking</text><rect x="246" y="523" width="176" height="108" rx="16" fill="#ffffff" stroke="#cbd5e1" stroke-width="1.5"></rect><rect x="260" y="539" width="40" height="40" rx="11" fill="#f1f5f9"></rect><svg x="268" y="547" width="24" height="24" viewBox="0 0 24 24" fill="none" stroke="#64748b" stroke-width="1.7" stroke-linecap="round" stroke-linejoin="round"><path d="M4 4h16v11H9l-4 3.5V15H4z"></path><path d="M12 7v5M9.5 9.5h5"></path></svg><text x="260" y="597" font-family="Manrope" font-size="14.5" font-weight="700" fill="#0f172a">Pergunta clínica</text><text x="260" y="613" font-family="Manrope" font-size="11" fill="#475569">entrada do usuário</text><path d="M430 559H462" stroke="#16a34a" stroke-width="2" stroke-linecap="round"></path><path d="M456 553l7 6-7 6" fill="none" stroke="#16a34a" stroke-width="2" stroke-linecap="round" stroke-linejoin="round"></path><rect x="476" y="523" width="176" height="124" rx="16" fill="#ffffff" stroke="#bfd3fe" stroke-width="1.5"></rect><rect x="490" y="539" width="40" height="40" rx="11" fill="#eef4ff"></rect><rect x="500" y="549" width="8" height="8" rx="2" fill="#2563eb"></rect><rect x="512" y="549" width="8" height="8" rx="2" fill="#60a5fa"></rect><rect x="500" y="561" width="8" height="8" rx="2" fill="#93c5fd"></rect><rect x="512" y="561" width="8" height="8" rx="2" fill="#3b82f6"></rect><text x="490" y="597" font-family="Manrope" font-size="14.5" font-weight="700" fill="#0f172a">Busca densa</text><text x="490" y="613" font-family="&#39;JetBrains Mono&#39;,monospace" font-size="10.5" font-weight="500" fill="#2563eb">e5 + FAISS</text><text x="490" y="629" font-family="Manrope" font-size="11" fill="#475569">candidatos · top-40</text><path d="M660 559H692" stroke="#16a34a" stroke-width="2" stroke-linecap="round"></path><path d="M686 553l7 6-7 6" fill="none" stroke="#16a34a" stroke-width="2" stroke-linecap="round" stroke-linejoin="round"></path><rect x="702" y="519" width="184" height="148" rx="19" fill="none" stroke="#f6cf6a" stroke-width="3" opacity="0.55"></rect><rect x="706" y="523" width="176" height="140" rx="16" fill="#ffffff" stroke="#e0a92a" stroke-width="2"></rect><rect x="720" y="539" width="40" height="40" rx="11" fill="#fffaeb"></rect><svg x="728" y="547" width="24" height="24" viewBox="0 0 24 24" fill="none" stroke="#c98a05" stroke-width="1.7" stroke-linecap="round" stroke-linejoin="round"><path d="M7 20V5M7 5L4 8M7 5l3 3"></path><path d="M17 4v15M17 19l3-3M17 19l-3-3"></path></svg><text x="720" y="597" font-family="Manrope" font-size="14.5" font-weight="700"><tspan fill="#c98a05">★ </tspan><tspan fill="#0f172a">Reranker</tspan></text><text x="720" y="613" font-family="&#39;JetBrains Mono&#39;,monospace" font-size="10.5" font-weight="500" fill="#c98a05">cross-encoder</text><text x="720" y="629" font-family="&#39;JetBrains Mono&#39;,monospace" font-size="10.5" font-weight="500" fill="#c98a05">bge-reranker-v2-m3</text><text x="720" y="645" font-family="Manrope" font-size="11" fill="#475569">reordena · top-5</text><rect x="730" y="512" width="128" height="19" rx="9.5" fill="#c98a05"></rect><text x="794" y="525" text-anchor="middle" font-family="Manrope" font-size="9.5" font-weight="800" fill="#ffffff" letter-spacing="0.4">★ TÉCNICA AVANÇADA</text><path d="M890 559H922" stroke="#16a34a" stroke-width="2" stroke-linecap="round"></path><path d="M916 553l7 6-7 6" fill="none" stroke="#16a34a" stroke-width="2" stroke-linecap="round" stroke-linejoin="round"></path><rect x="936" y="523" width="176" height="108" rx="16" fill="#ffffff" stroke="#d9ccfb" stroke-width="1.5"></rect><rect x="950" y="539" width="40" height="40" rx="11" fill="#f5f2ff"></rect><svg x="958" y="547" width="24" height="24" viewBox="0 0 24 24" fill="none" stroke="#7c3aed" stroke-width="1.7" stroke-linecap="round" stroke-linejoin="round"><rect x="6" y="6" width="12" height="12" rx="2.5"></rect><rect x="10" y="10" width="4" height="4" rx="1"></rect><path d="M9 3v3M15 3v3M9 18v3M15 18v3M3 9h3M3 15h3M18 9h3M18 15h3"></path></svg><text x="950" y="597" font-family="Manrope" font-size="14.5" font-weight="700" fill="#0f172a">LLM</text><text x="950" y="613" font-family="&#39;JetBrains Mono&#39;,monospace" font-size="10.5" font-weight="500" fill="#7c3aed">Qwen2.5-3B</text><path d="M1120 559H1152" stroke="#16a34a" stroke-width="2" stroke-linecap="round"></path><path d="M1146 553l7 6-7 6" fill="none" stroke="#16a34a" stroke-width="2" stroke-linecap="round" stroke-linejoin="round"></path><rect x="1166" y="523" width="176" height="108" rx="16" fill="#ffffff" stroke="#a9e9bf" stroke-width="1.5"></rect><rect x="1180" y="539" width="40" height="40" rx="11" fill="#effdf4"></rect><svg x="1188" y="547" width="24" height="24" viewBox="0 0 24 24" fill="none" stroke="#16a34a" stroke-width="1.7" stroke-linecap="round" stroke-linejoin="round"><rect x="5" y="3" width="14" height="18" rx="2.5"></rect><path d="M9 9h6M9 13h6M9 17h4"></path></svg><text x="1180" y="597" font-family="Manrope" font-size="14.5" font-weight="700" fill="#0f172a">Resposta</text><text x="1180" y="613" font-family="&#39;JetBrains Mono&#39;,monospace" font-size="10.5" font-weight="500" fill="#16a34a">+ [Fonte N]</text><rect x="1396" y="508.5" width="210" height="133" rx="14" fill="#ffffff" stroke="#16a34a" stroke-width="1.7" stroke-dasharray="5 5"></rect><text x="1412" y="530.5" font-family="Manrope" font-size="9.5" font-weight="800" fill="#16a34a" letter-spacing="1.2">IDEIA</text><text x="1412" y="550.5" font-family="Manrope" font-size="12" fill="#475569">Sobre a busca densa, um cross-</text><text x="1412" y="567.5" font-family="Manrope" font-size="12" fill="#475569">encoder reordena os candidatos</text><text x="1412" y="584.5" font-family="Manrope" font-size="12" fill="#475569">por relevância e leva o trecho-</text><text x="1412" y="601.5" font-family="Manrope" font-size="12" fill="#475569">chave ao topo do contexto — a</text><text x="1412" y="618.5" font-family="Manrope" font-size="12" fill="#475569">técnica avançada.</text><rect x="52" y="680" width="586" height="40" rx="12" fill="#f5f2ff" stroke="#e4dbfc" stroke-width="1"></rect><circle cx="74" cy="700" r="6" fill="#7c3aed"></circle><text x="90" y="705" font-family="Manrope" font-size="12.5" fill="#4c1d95"><tspan font-weight="800">Mesmo modelo local — Qwen2.5-3B —</tspan> nas três configurações.</text><line x1="52" y1="744" x2="1628" y2="744" stroke="#e5e7eb" stroke-width="1"></line><rect x="52" y="763" width="14" height="14" rx="4" fill="#64748b"></rect><text x="74" y="774" font-family="Manrope" font-size="12.5" font-weight="600" fill="#334155">Entrada</text><rect x="190" y="763" width="14" height="14" rx="4" fill="#2563eb"></rect><text x="212" y="774" font-family="Manrope" font-size="12.5" font-weight="600" fill="#334155">Recuperação</text><rect x="360" y="763" width="14" height="14" rx="4" fill="#c98a05"></rect><text x="382" y="774" font-family="Manrope" font-size="12.5" font-weight="600" fill="#334155">Técnica avançada <tspan fill="#94a3b8" font-weight="500">(reranker)</tspan></text><rect x="600" y="763" width="14" height="14" rx="4" fill="#7c3aed"></rect><text x="622" y="774" font-family="Manrope" font-size="12.5" font-weight="600" fill="#334155">Geração <tspan fill="#94a3b8" font-weight="500">(LLM)</tspan></text><rect x="760" y="763" width="14" height="14" rx="4" fill="#16a34a"></rect><text x="782" y="774" font-family="Manrope" font-size="12.5" font-weight="600" fill="#334155">Saída</text><text x="52" y="808" font-family="Manrope" font-size="11.5" fill="#64748b"><tspan font-weight="700" fill="#334155">Base de conhecimento:</tspan> 33 documentos abertos (~670 páginas) · 2.374 trechos · índice FAISS (embeddings multilingual-e5). Geração determinística (greedy).</text><text x="52" y="826" font-family="Manrope" font-size="11.5" fill="#64748b">As três diferem apenas na <tspan font-weight="700" fill="#334155">seleção</tspan> dos trechos que chegam ao LLM. Domínio: pneumologia — DPOC, fibrose pulmonar e paracoccidioidomicose (PCM).</text>
</svg>